<svg width="300" height="300" viewBox="0 0 300 300" fill="none" xmlns="http://www.w3.org/2000/svg">
<circle cx="150" cy="150" r="145" stroke="#FF3300" stroke-width="10"/>
<circle cx="150" cy="150" r="111.667" stroke="#FF3300" stroke-width="10"/>
<path d="M139.667 141.667V58.3334C134.5 58.3334 119 72.1355 119 75V192.474C125.085 196.762 132.093 199.829 139.667 201.316L139.667 158.5H160.333V241.833C165.5 241.833 181 227.865 181 225V107.626C174.903 103.398 167.897 100.389 160.333 98.9526V141.667H139.667Z" fill="#FF3300"/>
<path d="M139.667 226.294C132.393 225.292 125.452 223.246 119 220.314V225C119 227.792 134.5 241.833 139.667 241.833V226.294Z" fill="#FF3300"/>
<path d="M181 79.6864C174.548 76.7538 167.607 74.7084 160.333 73.7061V58.3334C165.5 58.3334 181 75 181 75V79.6864Z" fill="#FF3300"/>
<path d="M150.167 96C147.275 96 144.436 96.2266 141.667 96.6631V75.4577C144.403 75.1553 147.183 75 150 75C177.548 75 201.627 89.8525 214.667 111.987V139.667H194V118.338C184.153 104.8 168.188 96 150.167 96Z" fill="#FF3300"/>
<path d="M117 82.6314C103.791 89.1139 92.7678 99.3667 85.3334 111.987L85.3334 188.013C98.3727 210.148 122.452 225 150 225C152.817 225 155.597 224.845 158.333 224.542V203.722C155.67 204.125 152.943 204.333 150.167 204.333C131.941 204.333 115.818 195.332 106 181.532L106 118.801C109.087 114.462 112.797 110.598 117 107.338V82.6314Z" fill="#FF3300"/>
<path d="M214.667 188.013C207.232 200.633 196.209 210.886 183 217.369V193.252C187.189 190.054 190.898 186.26 194 181.996V160.333H214.667V188.013Z" fill="#FF3300"/>
<rect width="8.33333" height="8.33333" transform="matrix(0.712679 -0.70149 0.712679 0.70149 9.33313 149.846)" fill="#FF3300"/>
<rect width="8.33333" height="8.33333" transform="matrix(0.712679 -0.70149 0.712679 0.70149 9.33313 149.846)" fill="#FF3300"/>
<rect width="8.33333" height="8.33333" transform="matrix(0.712679 -0.70149 0.712679 0.70149 9.33313 149.846)" fill="#FF3300"/>
<rect width="8.33333" height="8.33333" transform="matrix(0.712679 -0.70149 0.712679 0.70149 282.667 150.179)" fill="#FF3300"/>
<rect width="8.33333" height="8.33333" transform="matrix(0.712679 -0.70149 0.712679 0.70149 282.667 150.179)" fill="#FF3300"/>
<rect width="8.33333" height="8.33333" transform="matrix(0.712679 -0.70149 0.712679 0.70149 282.667 150.179)" fill="#FF3300"/>
<rect width="3.33333" height="3.33333" transform="matrix(0.712679 -0.70149 0.712679 0.70149 276.667 150.005)" fill="#FF3300"/>
<rect width="3.33333" height="3.33333" transform="matrix(0.712679 -0.70149 0.712679 0.70149 276.667 150.005)" fill="#FF3300"/>
<rect width="3.33333" height="3.33333" transform="matrix(0.712679 -0.70149 0.712679 0.70149 276.667 150.005)" fill="#FF3300"/>
<rect width="3.33333" height="3.33333" transform="matrix(0.712679 -0.70149 0.712679 0.70149 22.6667 150.005)" fill="#FF3300"/>
<rect width="3.33333" height="3.33333" transform="matrix(0.712679 -0.70149 0.712679 0.70149 22.6667 150.005)" fill="#FF3300"/>
<rect width="3.33333" height="3.33333" transform="matrix(0.712679 -0.70149 0.712679 0.70149 22.6667 150.005)" fill="#FF3300"/>
<path d="M273.172 180.175C273.043 180.699 273.037 181.13 273.153 181.468C273.276 181.807 273.55 182.029 273.978 182.134C274.224 182.194 274.44 182.196 274.625 182.139C274.816 182.089 274.985 182.001 275.134 181.872C275.288 181.746 275.429 181.591 275.556 181.41C275.69 181.23 275.829 181.041 275.974 180.843C276.152 180.592 276.327 180.37 276.497 180.179C276.668 179.988 276.844 179.832 277.024 179.711C277.211 179.593 277.409 179.514 277.618 179.476C277.825 179.445 278.054 179.46 278.307 179.522C278.883 179.664 279.273 179.962 279.477 180.417C279.681 180.873 279.699 181.44 279.532 182.12C279.487 182.301 279.43 182.476 279.362 182.644C279.293 182.813 279.217 182.966 279.135 183.104C279.058 183.249 278.979 183.377 278.897 183.488C278.813 183.604 278.732 183.698 278.653 183.768L278.157 183.398C278.332 183.242 278.492 183.038 278.637 182.785C278.78 182.539 278.89 182.26 278.966 181.95C279.019 181.736 279.044 181.533 279.044 181.341C279.048 181.156 279.017 180.987 278.952 180.834C278.893 180.682 278.802 180.55 278.679 180.437C278.554 180.331 278.391 180.253 278.19 180.204C277.983 180.153 277.799 180.149 277.637 180.192C277.476 180.234 277.327 180.311 277.19 180.421C277.051 180.538 276.917 180.68 276.786 180.847C276.656 181.014 276.518 181.197 276.374 181.395C276.198 181.633 276.027 181.855 275.86 182.061C275.691 182.274 275.51 182.449 275.318 182.587C275.126 182.725 274.911 182.82 274.672 182.871C274.433 182.922 274.158 182.909 273.847 182.833C273.238 182.683 272.835 182.357 272.635 181.855C272.435 181.36 272.423 180.749 272.602 180.024C272.665 179.765 272.74 179.533 272.825 179.327C272.91 179.122 272.995 178.94 273.082 178.783C273.175 178.627 273.262 178.498 273.342 178.394C273.423 178.29 273.491 178.211 273.545 178.155L274.066 178.51C274.011 178.565 273.944 178.641 273.865 178.739C273.786 178.836 273.703 178.953 273.614 179.089C273.532 179.227 273.452 179.385 273.374 179.565C273.295 179.745 273.228 179.948 273.172 180.175Z" fill="white"/>
<path d="M267.947 204.442C267.402 204.207 266.955 203.921 266.607 203.582C266.259 203.244 266.004 202.876 265.841 202.48C265.681 202.092 265.609 201.687 265.624 201.265C265.638 200.843 265.733 200.43 265.907 200.026C266.081 199.621 266.316 199.269 266.612 198.968C266.908 198.668 267.254 198.439 267.648 198.282C268.045 198.134 268.487 198.07 268.972 198.09C269.457 198.11 269.972 198.237 270.517 198.472C271.062 198.706 271.505 198.992 271.847 199.327C272.195 199.666 272.448 200.029 272.608 200.417C272.771 200.814 272.845 201.223 272.83 201.645C272.816 202.067 272.721 202.48 272.547 202.884C272.373 203.288 272.138 203.641 271.842 203.941C271.546 204.242 271.199 204.466 270.801 204.615C270.407 204.772 269.967 204.84 269.482 204.82C269.003 204.803 268.492 204.677 267.947 204.442ZM268.231 203.781C268.66 203.965 269.066 204.075 269.451 204.11C269.841 204.147 270.199 204.116 270.525 204.017C270.851 203.918 271.137 203.75 271.383 203.515C271.633 203.289 271.834 202.998 271.987 202.643C272.14 202.288 272.214 201.939 272.209 201.596C272.208 201.261 272.132 200.942 271.98 200.637C271.828 200.332 271.604 200.05 271.309 199.793C271.02 199.537 270.661 199.318 270.232 199.133C269.803 198.949 269.394 198.838 269.003 198.8C268.619 198.765 268.264 198.798 267.938 198.897C267.613 198.996 267.325 199.159 267.075 199.385C266.822 199.618 266.62 199.912 266.467 200.267C266.314 200.622 266.241 200.968 266.249 201.305C266.253 201.648 266.331 201.972 266.483 202.277C266.635 202.582 266.856 202.862 267.145 203.117C267.441 203.375 267.803 203.596 268.231 203.781Z" fill="white"/>
<path d="M257.134 217.123L262.961 220.873L260.824 224.195L260.327 223.876L262.097 221.126L260.045 219.805L258.476 222.244L257.98 221.925L259.549 219.486L256.766 217.695L257.134 217.123Z" fill="white"/>
<path d="M246.398 242.242L245.961 241.846L247.453 240.202L242.759 235.94L243.216 235.437L247.91 239.699L249.403 238.055L249.839 238.452L246.398 242.242Z" fill="white"/>
<path d="M231.142 254.833C230.226 254.189 229.371 253.623 228.579 253.136C227.786 252.658 227.044 252.229 226.353 251.849C226.657 252.611 227.051 253.481 227.534 254.458C228.011 255.44 228.534 256.463 229.102 257.526L228.576 257.942C228.228 257.307 227.91 256.705 227.621 256.135C227.331 255.574 227.063 255.03 226.816 254.502C226.574 253.98 226.349 253.469 226.142 252.97C225.939 252.477 225.751 251.98 225.577 251.48L226.15 251.028C226.511 251.227 226.872 251.426 227.233 251.625C227.589 251.828 227.951 252.039 228.319 252.258C228.692 252.482 229.074 252.72 229.467 252.97C229.86 253.22 230.272 253.49 230.704 253.778C230.524 253.291 230.36 252.826 230.213 252.381C230.061 251.941 229.919 251.514 229.787 251.1C229.66 250.691 229.541 250.287 229.431 249.89C229.316 249.497 229.203 249.101 229.094 248.704L229.659 248.258C230.11 248.539 230.555 248.833 230.993 249.141C231.43 249.458 231.875 249.795 232.326 250.152C232.777 250.519 233.241 250.908 233.72 251.32C234.197 251.742 234.704 252.195 235.24 252.681L234.691 253.115C234.249 252.716 233.81 252.328 233.375 251.949C232.945 251.575 232.522 251.217 232.106 250.874C231.686 250.535 231.282 250.217 230.894 249.92C230.506 249.632 230.14 249.368 229.798 249.129C230.032 249.887 230.287 250.705 230.563 251.582C230.844 252.465 231.191 253.427 231.605 254.468L231.142 254.833Z" fill="white"/>
<path d="M208.694 262.113C208.969 262.35 209.231 262.579 209.481 262.799C209.732 263.018 209.976 263.234 210.214 263.446L213.167 261.821C213.121 261.504 213.073 261.181 213.021 260.851C212.969 260.522 212.914 260.18 212.856 259.824L213.478 259.482C213.591 260.241 213.695 260.949 213.789 261.604C213.887 262.266 213.973 262.892 214.047 263.483C214.118 264.083 214.181 264.661 214.236 265.217C214.29 265.772 214.333 266.335 214.364 266.903L213.839 267.192C213.375 266.862 212.923 266.524 212.483 266.181C212.043 265.837 211.592 265.473 211.129 265.088C210.664 264.712 210.178 264.306 209.671 263.87C209.168 263.439 208.623 262.974 208.037 262.475L208.694 262.113ZM213.743 266.355C213.689 265.73 213.624 265.1 213.548 264.465C213.467 263.833 213.371 263.154 213.262 262.431L210.678 263.853C211.23 264.332 211.755 264.774 212.251 265.178C212.748 265.582 213.245 265.975 213.743 266.355Z" fill="white"/>
<path d="M190.284 275.135C190.112 274.644 190.105 274.212 190.263 273.839C190.422 273.465 190.69 273.141 191.067 272.868C190.922 272.777 190.734 272.653 190.501 272.494C190.263 272.337 190.013 272.16 189.753 271.962C189.495 271.77 189.235 271.564 188.975 271.345C188.714 271.125 188.483 270.91 188.281 270.698L188.97 270.456C189.19 270.661 189.423 270.862 189.669 271.059C189.908 271.257 190.151 271.444 190.396 271.619C190.637 271.803 190.868 271.969 191.09 272.118C191.312 272.266 191.506 272.396 191.672 272.507C191.866 272.417 192.064 272.337 192.266 272.267L193.322 271.896L192.395 269.254L193.037 269.029L195.289 275.445C195.085 275.587 194.836 275.724 194.543 275.855C194.245 275.995 193.968 276.11 193.71 276.2C192.811 276.516 192.075 276.584 191.503 276.403C190.924 276.224 190.518 275.802 190.284 275.135ZM193.439 275.67C193.678 275.586 193.886 275.503 194.061 275.42C194.233 275.345 194.377 275.281 194.492 275.226L193.515 272.443L192.628 272.754C192.332 272.858 192.056 272.969 191.801 273.087C191.548 273.211 191.34 273.355 191.179 273.517C191.019 273.686 190.914 273.882 190.865 274.104C190.816 274.326 190.847 274.595 190.957 274.909C191.059 275.199 191.199 275.418 191.379 275.567C191.558 275.716 191.758 275.812 191.978 275.855C192.2 275.904 192.437 275.905 192.689 275.859C192.938 275.821 193.188 275.758 193.439 275.67Z" fill="white"/>
<path d="M172.544 274.59L173.731 281.417L169.791 282.103L169.69 281.522L172.96 280.953L172.547 278.578L169.631 279.086L169.532 278.514L172.448 278.007L171.975 275.288L168.448 275.901L168.347 275.32L172.544 274.59Z" fill="white"/>
<path d="M130.857 275.252L129.763 282.095L125.813 281.464L125.906 280.881L129.185 281.405L129.565 279.025L126.642 278.558L126.734 277.986L129.657 278.453L130.092 275.727L126.557 275.162L126.65 274.58L130.857 275.252Z" fill="white"/>
<path d="M106.757 269.183C106.803 269.445 106.871 269.756 106.961 270.117C107.044 270.475 107.14 270.859 107.249 271.268C107.356 271.684 107.473 272.11 107.601 272.547C107.726 272.99 107.856 273.42 107.99 273.838C108.116 274.259 108.246 274.658 108.38 275.034C108.508 275.407 108.627 275.732 108.738 276.008L110.597 270.472L111.232 270.685L109.027 277.255L108.515 277.083C108.313 276.615 108.109 276.082 107.901 275.485C107.685 274.892 107.483 274.29 107.295 273.678C107.104 273.073 106.936 272.485 106.789 271.916C106.637 271.344 106.521 270.851 106.441 270.438L104.647 275.785L104.012 275.572L106.217 269.002L106.757 269.183Z" fill="white"/>
<path d="M86.9636 263.796L86.3633 263.476L87.8152 260.749C87.9521 260.761 88.2041 260.82 88.5713 260.924C88.9357 261.02 89.3562 261.195 89.8329 261.449C90.233 261.662 90.5662 261.93 90.8323 262.253C91.0985 262.576 91.2876 262.937 91.3997 263.336C91.5027 263.739 91.5199 264.174 91.4513 264.644C91.3795 265.119 91.2074 265.613 90.9348 266.125C90.6623 266.637 90.3446 267.049 89.9817 267.362C89.6157 267.681 89.2327 267.904 88.8328 268.031C88.4239 268.16 88.0082 268.204 87.5858 268.16C87.1635 268.116 86.7551 267.99 86.3608 267.78C85.9077 267.539 85.5606 267.29 85.3197 267.033C85.0755 266.782 84.9093 266.577 84.8209 266.416L85.2965 266.012C85.3986 266.218 85.5721 266.431 85.817 266.652C86.0588 266.879 86.3444 267.08 86.674 267.255C86.98 267.418 87.2981 267.516 87.6283 267.548C87.9585 267.58 88.2832 267.538 88.6023 267.421C88.9214 267.304 89.2276 267.112 89.5207 266.845C89.8079 266.575 90.0675 266.222 90.2993 265.787C90.5154 265.381 90.6641 264.988 90.7454 264.608C90.8235 264.234 90.8311 263.88 90.7681 263.544C90.696 263.211 90.5517 262.908 90.335 262.634C90.1183 262.36 89.8246 262.124 89.4538 261.927C89.1537 261.767 88.8958 261.649 88.68 261.571C88.4553 261.497 88.2997 261.456 88.2134 261.448L86.9636 263.796Z" fill="white"/>
<path d="M68.6696 256.192L68.1301 255.778L72.3489 250.28L72.8884 250.694L68.6696 256.192Z" fill="white"/>
<path d="M55.2158 234.373C55.1317 234.625 55.0433 234.931 54.9507 235.291C54.8536 235.646 54.7554 236.03 54.6563 236.441C54.5524 236.858 54.4526 237.288 54.3571 237.733C54.2567 238.182 54.1661 238.622 54.0852 239.054C53.9949 239.484 53.9193 239.897 53.8586 240.291C53.7933 240.68 53.7437 241.023 53.7099 241.319L57.9793 237.334L58.4364 237.824L53.3703 242.552L53.0018 242.158C53.0476 241.65 53.1214 241.084 53.223 240.46C53.3153 239.836 53.4241 239.21 53.5496 238.582C53.6701 237.959 53.8015 237.362 53.9438 236.792C54.0816 236.216 54.214 235.728 54.341 235.327L50.2179 239.175L49.7607 238.685L54.8269 233.957L55.2158 234.373Z" fill="white"/>
<path d="M44.8017 220.959L39.0263 224.789L36.8156 221.456L37.3073 221.13L39.1422 223.897L41.1507 222.565L39.5147 220.098L39.9981 219.777L41.634 222.244L43.9342 220.719L41.9555 217.735L42.4472 217.409L44.8017 220.959Z" fill="white"/>
<path d="M34.5552 202.723L28.2282 205.55L26.5962 201.898L27.1349 201.658L28.4894 204.689L30.6897 203.706L29.4821 201.003L30.0116 200.767L31.2192 203.469L33.7391 202.343L32.2785 199.074L32.8172 198.834L34.5552 202.723Z" fill="white"/>
<path d="M21.6718 180.108C22.175 179.977 22.6062 180.006 22.9655 180.195C23.3247 180.384 23.6251 180.678 23.8668 181.076C23.9689 180.939 24.1086 180.762 24.286 180.543C24.4616 180.318 24.659 180.084 24.8781 179.841C25.0907 179.6 25.3172 179.358 25.5573 179.117C25.7975 178.875 26.0314 178.662 26.2592 178.479L26.4433 179.185C26.2205 179.388 26.0011 179.604 25.7851 179.832C25.5674 180.054 25.3611 180.28 25.1661 180.51C24.963 180.735 24.7783 180.952 24.6122 181.161C24.4461 181.37 24.3008 181.552 24.1762 181.709C24.2494 181.91 24.3129 182.114 24.3666 182.32L24.6491 183.404L27.3586 182.698L27.53 183.356L20.9498 185.071C20.8247 184.855 20.709 184.596 20.6025 184.293C20.4879 183.986 20.3961 183.699 20.3272 183.435C20.0868 182.512 20.0803 181.774 20.3076 181.218C20.5332 180.657 20.988 180.287 21.6718 180.108ZM20.8779 183.209C20.9418 183.454 21.0078 183.668 21.0759 183.85C21.1359 184.027 21.1883 184.175 21.2331 184.294L24.0878 183.55L23.8508 182.641C23.7718 182.338 23.6841 182.054 23.5877 181.79C23.4848 181.527 23.3589 181.308 23.21 181.134C23.0547 180.961 22.8684 180.84 22.651 180.773C22.4337 180.706 22.1637 180.714 21.8412 180.798C21.5444 180.875 21.3144 180.997 21.1511 181.164C20.9878 181.33 20.8757 181.521 20.8148 181.737C20.7474 181.954 20.7263 182.191 20.7515 182.446C20.7685 182.696 20.8107 182.951 20.8779 183.209Z" fill="white"/>
<path d="M38.4963 76.0072L39.3405 74.6954L45.168 78.4457L44.3238 79.7576L41.8515 78.1665L40.4337 80.3697L42.9059 81.9607L42.0617 83.2726L36.2342 79.5222L37.0784 78.2104L39.3068 79.6445L40.7247 77.4413L38.4963 76.0072Z" fill="white"/>
<path d="M54.945 65.9898L49.8143 61.3315L52.9602 57.8665L53.9301 58.7471L51.8328 61.0571L52.8397 61.9713L54.7017 59.9205L55.6493 60.7809L53.7873 62.8317L55.0238 63.9543L57.2756 61.474L58.2455 62.3546L54.945 65.9898Z" fill="white"/>
<path d="M72.4695 49.8188C71.5852 50.5169 70.716 50.8039 69.862 50.6797C69.0132 50.5513 68.2315 50.0345 67.5169 49.1293C67.1616 48.6792 66.9163 48.2232 66.7808 47.7611C66.6412 47.2937 66.5993 46.8426 66.6552 46.4078C66.707 45.9677 66.8534 45.5506 67.0944 45.1565C67.3354 44.7624 67.6547 44.4084 68.0524 44.0944C68.2826 43.9127 68.5064 43.7658 68.7237 43.6537C68.9368 43.5364 69.1326 43.4455 69.3111 43.3811C69.4854 43.3114 69.6383 43.2629 69.7696 43.2357C69.901 43.2084 69.9979 43.1913 70.0605 43.1844L70.488 44.4522C70.2503 44.4955 69.9942 44.5745 69.7196 44.6893C69.4503 44.8 69.1743 44.9669 68.8918 45.19C68.7034 45.3387 68.5424 45.5168 68.4088 45.7241C68.2805 45.9274 68.2015 46.1554 68.1717 46.4082C68.1431 46.6517 68.1736 46.9163 68.2634 47.2022C68.3532 47.488 68.522 47.788 68.7698 48.1019C68.9681 48.3531 69.1802 48.5679 69.406 48.7464C69.6329 48.9155 69.8685 49.031 70.1128 49.093C70.3623 49.1508 70.6236 49.1483 70.8968 49.0855C71.1659 49.0175 71.4417 48.872 71.7243 48.6489C71.9022 48.5085 72.0535 48.372 72.1783 48.2395C72.303 48.1071 72.41 47.9844 72.4993 47.8715C72.5844 47.7533 72.6543 47.6429 72.7091 47.5402C72.7639 47.4375 72.813 47.3436 72.8562 47.2585L73.9682 47.9731C73.8782 48.2141 73.7092 48.5004 73.4613 48.832C73.2135 49.1635 72.8829 49.4925 72.4695 49.8188Z" fill="white"/>
<path d="M88.4913 31.2395L89.1324 32.4048L87.3011 33.4122L90.0003 38.3188L88.6334 39.0707L85.9343 34.1641L84.1031 35.1714L83.4621 34.0061L88.4913 31.2395Z" fill="white"/>
<path d="M104.886 27.8494C104.999 28.1703 105.138 28.4464 105.304 28.6778C105.476 28.907 105.668 29.0905 105.879 29.2285C106.094 29.3579 106.326 29.4354 106.575 29.461C106.824 29.4866 107.087 29.4508 107.364 29.3536C107.635 29.2587 107.859 29.1233 108.038 28.9476C108.223 28.7697 108.355 28.5641 108.436 28.3309C108.521 28.0892 108.556 27.8262 108.541 27.5418C108.532 27.2552 108.471 26.9514 108.358 26.6306C108.246 26.3098 108.103 26.0348 107.931 25.8056C107.763 25.5679 107.571 25.3843 107.356 25.2549C107.145 25.117 106.912 25.0363 106.657 25.013C106.407 24.9874 106.148 25.0221 105.877 25.117C105.6 25.2142 105.374 25.3538 105.197 25.5358C105.019 25.7115 104.887 25.9202 104.803 26.1619C104.722 26.3951 104.687 26.6582 104.698 26.9511C104.713 27.2355 104.776 27.5349 104.886 27.8494ZM109.878 26.0974C110.074 26.6573 110.163 27.1809 110.143 27.6682C110.127 28.1471 110.026 28.582 109.838 28.9729C109.648 29.3575 109.377 29.6929 109.025 29.9788C108.68 30.2626 108.277 30.4851 107.818 30.6463C107.371 30.8031 106.925 30.8787 106.477 30.8731C106.03 30.8675 105.609 30.7751 105.214 30.5958C104.817 30.4102 104.46 30.1365 104.142 29.7746C103.822 29.4065 103.564 28.9425 103.367 28.3827C103.171 27.8228 103.086 27.3013 103.115 26.818C103.141 26.3284 103.251 25.8871 103.445 25.4939C103.645 25.0986 103.915 24.7601 104.254 24.4785C104.6 24.1948 104.989 23.9767 105.423 23.8243C105.87 23.6676 106.317 23.592 106.764 23.5976C107.211 23.6031 107.633 23.6987 108.03 23.8843C108.428 24.0699 108.786 24.3467 109.106 24.7149C109.424 25.0767 109.681 25.5376 109.878 26.0974Z" fill="white"/>
<path d="M127.037 18.2944C128.061 18.1162 128.878 18.1635 129.487 18.4365C130.095 18.7029 130.466 19.2204 130.6 19.9888C130.683 20.4683 130.64 20.8785 130.469 21.2195C130.304 21.5528 130.029 21.8408 129.645 22.0835C129.812 22.2303 129.991 22.4022 130.181 22.5992C130.37 22.7897 130.558 22.9939 130.744 23.2118C130.937 23.4219 131.124 23.6464 131.308 23.8851C131.491 24.1173 131.663 24.3479 131.824 24.5769L130.1 24.8768C129.937 24.6752 129.769 24.4709 129.598 24.2638C129.433 24.0557 129.263 23.8552 129.087 23.6624C128.918 23.4685 128.751 23.2878 128.587 23.1202C128.421 22.946 128.259 22.7915 128.1 22.6567L127.342 22.7887L127.775 25.2812L126.238 25.5486L125.068 18.8196C125.391 18.6957 125.728 18.5897 126.078 18.5018C126.435 18.4126 126.754 18.3435 127.037 18.2944ZM127.353 19.5893C127.242 19.6087 127.141 19.6297 127.05 19.6523C126.965 19.6737 126.884 19.6945 126.807 19.7148L127.129 21.567L127.562 21.4916C128.14 21.3911 128.542 21.2468 128.766 21.0589C128.991 20.871 129.073 20.603 129.012 20.2549C128.954 19.9199 128.785 19.7058 128.504 19.6124C128.23 19.5113 127.846 19.5036 127.353 19.5893Z" fill="white"/>
<path d="M171.114 25.3204C170.001 25.1426 169.201 24.6975 168.714 23.9851C168.234 23.2737 168.085 22.3485 168.267 21.2096C168.357 20.6435 168.527 20.1541 168.775 19.7414C169.024 19.3222 169.328 18.9859 169.685 18.7325C170.044 18.4725 170.45 18.2977 170.903 18.2081C171.357 18.1185 171.833 18.1137 172.334 18.1936C172.623 18.2399 172.883 18.305 173.113 18.389C173.343 18.4664 173.543 18.5489 173.711 18.6365C173.88 18.7176 174.019 18.7972 174.128 18.8754C174.238 18.9536 174.316 19.0134 174.363 19.0547L173.72 20.2279C173.527 20.0823 173.296 19.9474 173.025 19.8232C172.761 19.7 172.452 19.61 172.096 19.5532C171.859 19.5153 171.619 19.5175 171.376 19.5596C171.14 19.6029 170.918 19.6992 170.712 19.8485C170.514 19.9923 170.34 20.194 170.19 20.4537C170.041 20.7134 169.934 21.0407 169.871 21.4357C169.821 21.7517 169.806 22.0532 169.828 22.3402C169.857 22.6217 169.932 22.8732 170.052 23.0949C170.178 23.3177 170.357 23.5083 170.588 23.6668C170.82 23.8186 171.114 23.923 171.47 23.9798C171.693 24.0156 171.896 24.0345 172.078 24.0366C172.26 24.0386 172.423 24.0343 172.567 24.0234C172.711 24.006 172.84 23.9827 172.952 23.9535C173.065 23.9242 173.167 23.8967 173.259 23.8709L173.487 25.173C173.248 25.27 172.923 25.3396 172.511 25.3818C172.1 25.424 171.634 25.4035 171.114 25.3204Z" fill="white"/>
<path d="M190.641 30.3065C190.18 30.1516 189.803 29.9548 189.51 29.7159C189.22 29.4708 189.002 29.1973 188.857 28.8956C188.721 28.5896 188.652 28.2606 188.651 27.9085C188.658 27.5522 188.726 27.1813 188.855 26.7958L190.227 22.7098L191.706 23.2062L190.376 27.1689C190.287 27.4344 190.239 27.6714 190.232 27.8801C190.234 28.0846 190.265 28.2639 190.326 28.4179C190.395 28.5677 190.494 28.6923 190.622 28.7917C190.757 28.8932 190.913 28.9736 191.09 29.033C191.45 29.1539 191.778 29.1409 192.073 28.9939C192.375 28.8491 192.615 28.5112 192.793 27.9803L194.123 24.0175L195.602 24.5139L194.231 28.5999C194.101 28.9854 193.929 29.3213 193.713 29.6076C193.498 29.8939 193.24 30.1168 192.94 30.2764C192.643 30.4297 192.302 30.5123 191.918 30.5241C191.535 30.536 191.109 30.4634 190.641 30.3065Z" fill="white"/>
<path d="M212.722 32.1381C213.64 32.6267 214.256 33.1659 214.569 33.7554C214.885 34.3391 214.86 34.9752 214.493 35.6637C214.264 36.0933 213.978 36.3902 213.634 36.5544C213.299 36.7158 212.905 36.7744 212.453 36.73C212.495 36.9488 212.53 37.1943 212.559 37.4664C212.591 37.7327 212.614 38.0091 212.628 38.2958C212.65 38.5797 212.661 38.8722 212.659 39.1734C212.66 39.4687 212.654 39.7564 212.641 40.0364L211.097 39.2141C211.091 38.9545 211.085 38.6903 211.077 38.4217C211.074 38.1562 211.063 37.8935 211.043 37.6335C211.029 37.3767 211.008 37.1316 210.981 36.8983C210.957 36.6591 210.924 36.4375 210.882 36.2336L210.202 35.8718L209.013 38.1051L207.636 37.3721L210.846 31.3431C211.177 31.444 211.508 31.5673 211.838 31.7129C212.174 31.8616 212.469 32.0034 212.722 32.1381ZM212.177 33.3544C212.077 33.3011 211.984 33.2555 211.898 33.2175C211.819 33.1827 211.742 33.1494 211.668 33.1177L210.785 34.7773L211.173 34.984C211.691 35.2597 212.096 35.3923 212.389 35.3819C212.681 35.3714 212.911 35.2103 213.077 34.8984C213.236 34.5982 213.234 34.3253 213.071 34.0796C212.916 33.831 212.618 33.5893 212.177 33.3544Z" fill="white"/>
<path d="M230.414 43.5641L231.651 44.5138L227.432 50.0117L226.195 49.062L230.414 43.5641Z" fill="white"/>
<path d="M241.279 62.503L246.345 57.7745L249.538 61.1957L248.581 62.0896L246.452 59.8087L245.458 60.7367L247.348 62.7617L246.412 63.6351L244.522 61.6101L243.301 62.7496L245.587 65.1986L244.629 66.0924L241.279 62.503Z" fill="white"/>
<path d="M257.823 81.4526L256.706 82.1932L254.147 78.3347L259.922 74.5045L260.784 75.8046L256.126 78.8941L257.823 81.4526Z" fill="white"/>
</svg>
